<svg xmlns="http://www.w3.org/2000/svg" viewBox="0 0 480 120" role="img" aria-label="NOTEtoolsLM">
  <defs>
    <linearGradient id="g" x1="0%" y1="0%" x2="100%" y2="100%">
      <stop offset="0%" stop-color="#3b82f6"/>
      <stop offset="55%" stop-color="#6366f1"/>
      <stop offset="100%" stop-color="#8b5cf6"/>
    </linearGradient>
    <linearGradient id="paper" x1="0%" y1="0%" x2="100%" y2="100%">
      <stop offset="0%" stop-color="#f8fafc"/>
      <stop offset="100%" stop-color="#e2e8f0"/>
    </linearGradient>
  </defs>
  <g transform="translate(8 8)">
    <rect width="104" height="104" rx="22" fill="#111827" stroke="rgba(255,255,255,0.06)" stroke-width="1"/>
    <g transform="translate(18 14)">
      <path d="M10 6 L46 6 L46 70 L10 70 Z" fill="url(#paper)"/>
      <path d="M10 6 L46 6 L32 20 L10 20 Z" fill="#cbd5e1"/>
      <path d="M18 26 L40 48" stroke="url(#g)" stroke-width="6" stroke-linecap="round"/>
      <path d="M40 26 L18 48" stroke="url(#g)" stroke-width="6" stroke-linecap="round"/>
      <path d="M52 16 C64 16 64 30 52 30 C40 30 40 44 52 44 C64 44 64 58 52 58"
            fill="none" stroke="url(#g)" stroke-width="4" stroke-linecap="round"/>
      <circle cx="52" cy="58" r="3.5" fill="#60a5fa"/>
    </g>
  </g>
  <text x="132" y="58" font-family="Inter, system-ui, sans-serif" font-size="38" font-weight="700" fill="#f8fafc" letter-spacing="-0.03em">NOTEtoolsLM</text>
  <text x="134" y="86" font-family="Inter, system-ui, sans-serif" font-size="14" font-weight="500" fill="#94a3b8">NotebookLM power tools</text>
</svg>